<?xml version="1.0" standalone="no"?>
<!DOCTYPE svg PUBLIC "-//W3C//DTD SVG 20010904//EN"
 "http://www.w3.org/TR/2001/REC-SVG-20010904/DTD/svg10.dtd">
<svg version="1.0" xmlns="http://www.w3.org/2000/svg"
 width="16.000000pt" height="16.000000pt" viewBox="0 0 16.000000 16.000000"
 preserveAspectRatio="xMidYMid meet">
<metadata>
Created by potrace 1.11, written by Peter Selinger 2001-2013
</metadata>
<g transform="translate(0.000000,16.000000) scale(0.002222,-0.002222)"
fill="#000000" stroke="none">
<path d="M3415 7190 c-1314 -68 -2491 -852 -3056 -2035 -259 -543 -378 -1136
-348 -1733 21 -423 93 -750 259 -1186 36 -95 203 -422 271 -531 534 -854 1379
-1439 2364 -1634 249 -49 411 -65 690 -65 264 0 377 9 619 50 1004 169 1891
767 2444 1649 80 127 236 438 289 575 230 595 300 1222 207 1860 -30 206 -89
441 -166 660 -448 1273 -1585 2192 -2926 2365 -106 14 -450 37 -492 33 -8 0
-78 -4 -155 -8z m-820 -2605 c144 -396 407 -1117 584 -1602 176 -485 321 -885
321 -888 0 -3 -60 -5 -132 -5 l-133 0 -160 450 -160 450 -710 0 -711 0 -159
-440 c-87 -242 -161 -444 -165 -450 -4 -7 -53 -10 -137 -8 l-130 3 306 835
c169 459 435 1183 591 1608 l283 773 125 -3 124 -3 263 -720z m1675 -10 l0
-735 174 0 175 0 633 735 633 735 154 0 c146 0 153 -1 139 -17 -8 -10 -298
-346 -644 -747 -346 -401 -642 -744 -658 -763 l-29 -34 35 -37 c40 -42 1406
-1578 1427 -1605 13 -16 4 -17 -147 -17 l-160 0 -688 765 -689 764 -177 1
-178 0 0 -765 0 -765 -130 0 -130 0 0 1610 0 1610 130 0 130 0 0 -735z"/>
<path d="M2196 4923 c-21 -53 -616 -1694 -616 -1698 0 -3 282 -5 626 -5 592 0
626 1 619 18 -3 9 -62 172 -130 362 -68 190 -203 565 -299 834 -97 269 -179
493 -184 498 -6 6 -12 2 -16 -9z"/>
</g>
</svg>
