<?xml version="1.0" standalone="no"?>
<!DOCTYPE svg PUBLIC "-//W3C//DTD SVG 20010904//EN"
 "http://www.w3.org/TR/2001/REC-SVG-20010904/DTD/svg10.dtd">
<svg version="1.0" xmlns="http://www.w3.org/2000/svg"
 width="16.000000pt" height="16.000000pt" viewBox="0 0 16.000000 16.000000"
 preserveAspectRatio="xMidYMid meet">
<metadata>
Created by potrace 1.11, written by Peter Selinger 2001-2013
</metadata>
<g transform="translate(0.000000,16.000000) scale(0.006154,-0.006154)"
fill="#000000" stroke="none">
<path d="M1132 2590 c-168 -24 -361 -91 -499 -175 -316 -192 -529 -494 -609
-865 -26 -119 -26 -381 0 -500 58 -270 168 -474 360 -666 192 -192 396 -302
666 -360 119 -26 381 -26 500 0 270 58 474 168 666 360 192 192 302 396 360
666 26 119 26 381 0 500 -58 270 -168 474 -360 666 -189 188 -384 296 -646
355 -98 22 -340 33 -438 19z m-116 -1175 c123 -335 223 -613 224 -617 0 -5
-24 -8 -54 -8 l-53 0 -60 168 -60 167 -273 0 -274 0 -60 -167 -61 -168 -52 0
c-29 0 -53 4 -53 8 0 5 99 278 220 608 121 329 223 605 225 612 3 9 21 12 57
10 l51 -3 223 -610z m544 335 l0 -280 64 0 64 0 241 280 242 280 60 0 c46 0
58 -3 53 -12 -5 -7 -120 -143 -257 -301 l-248 -288 280 -314 c155 -173 281
-317 281 -320 0 -3 -28 -5 -63 -5 l-62 0 -265 295 -265 294 -62 1 -63 0 0
-295 0 -295 -55 0 -55 0 0 620 0 620 55 0 55 0 0 -280z"/>
<path d="M622 1557 c-62 -171 -112 -315 -112 -319 0 -5 104 -8 230 -8 127 0
230 3 230 7 0 15 -224 633 -229 633 -3 0 -57 -141 -119 -313z"/>
</g>
</svg>
