<?xml version="1.0" standalone="no"?>
<!DOCTYPE svg PUBLIC "-//W3C//DTD SVG 20010904//EN"
 "http://www.w3.org/TR/2001/REC-SVG-20010904/DTD/svg10.dtd">
<svg version="1.0" xmlns="http://www.w3.org/2000/svg"
 width="16.000000pt" height="16.000000pt" viewBox="0 0 16.000000 16.000000"
 preserveAspectRatio="xMidYMid meet">
<metadata>
Created by potrace 1.11, written by Peter Selinger 2001-2013
</metadata>
<g transform="translate(0.000000,16.000000) scale(0.006154,-0.006154)"
fill="#000000" stroke="none">
<path d="M1132 2590 c-168 -24 -361 -91 -499 -175 -316 -192 -529 -494 -609
-865 -26 -119 -26 -381 0 -500 58 -270 168 -474 360 -666 192 -192 396 -302
666 -360 119 -26 381 -26 500 0 270 58 474 168 666 360 192 192 302 396 360
666 26 119 26 381 0 500 -58 270 -168 474 -360 666 -189 188 -384 296 -646
355 -98 22 -340 33 -438 19z m-112 -1167 c122 -329 225 -604 228 -611 3 -10
-3 -13 -23 -10 -27 3 -32 12 -94 180 l-66 178 -296 0 -296 0 -68 -180 c-65
-173 -69 -180 -95 -180 l-27 0 221 593 c122 325 225 600 229 610 4 11 17 17
35 17 l29 0 223 -597z m490 312 l0 -285 83 0 82 0 250 285 c214 244 254 285
277 285 16 0 28 -2 28 -6 0 -3 -114 -135 -252 -295 -139 -159 -254 -293 -256
-298 -2 -5 125 -144 283 -310 157 -165 285 -303 285 -306 0 -3 -13 -5 -28 -5
-24 0 -71 45 -313 299 l-284 299 -77 1 -78 1 0 -300 0 -300 -25 0 -25 0 0 610
0 610 25 0 25 0 0 -285z"/>
<path d="M629 1581 l-136 -366 270 -3 c149 -1 272 0 274 2 3 2 -54 162 -126
354 -72 192 -131 355 -131 360 0 47 -33 -29 -151 -347z"/>
</g>
</svg>
